Land_normalized_pl12_filtered_grf
version=1
nRows=22
nColumns=37
inDegrees=yes
endheader
time		1_ground_force_vx		1_ground_force_vy		1_ground_force_vz		1_ground_force_px		1_ground_force_py		1_ground_force_pz		1_ground_torque_x		1_ground_torque_y		1_ground_torque_z		2_ground_force_vx		2_ground_force_vy		2_ground_force_vz		2_ground_force_px		2_ground_force_py		2_ground_force_pz		2_ground_torque_x		2_ground_torque_y		2_ground_torque_z		3_ground_force_vx		3_ground_force_vy		3_ground_force_vz		3_ground_force_px		3_ground_force_py		3_ground_force_pz		3_ground_torque_x		3_ground_torque_y		3_ground_torque_z		4_ground_force_vx		4_ground_force_vy		4_ground_force_vz		4_ground_force_px		4_ground_force_py		4_ground_force_pz		4_ground_torque_x		4_ground_torque_y		4_ground_torque_z		
0.653667		7.294432		835.405665		207.115139		0.071001		0.000000		0.263751		0.218830		25.054411		6.211618		48.929501		1117.478475		227.159036		-0.146487		0.000000		0.252625		-0.572433		-13.073065		-2.657433		21.038431		1.938514		0.365146		0.375774		1.310578		1.913879		-0.091625		-0.008442		-0.001590		-17.543441		-0.725341		1.456536		-0.265331		1.310034		1.925309		0.008380		0.000346		-0.000696		
0.656520		-0.863298		831.906933		194.859177		0.071799		0.000000		0.263011		-0.024826		23.934498		5.606242		43.117908		1052.926736		220.526216		-0.145239		0.000000		0.251292		-0.466029		-11.380227		-2.383481		21.060541		1.979233		0.231724		0.375806		1.310609		1.913885		-0.093377		-0.008776		-0.001028		-17.535092		-0.848311		1.581579		-0.265311		1.310031		1.925285		0.008093		0.000391		-0.000730		
0.659374		-9.555503		827.641653		181.442864		0.072856		0.000000		0.262730		-0.263670		22.842621		5.007842		38.033288		989.849898		214.712016		-0.143982		0.000000		0.250002		-0.384465		-10.005834		-2.170376		21.137160		2.023227		0.146859		0.375839		1.310646		1.913887		-0.095980		-0.009187		-0.000667		-17.572151		-0.933559		1.737339		-0.265289		1.310025		1.925256		0.008369		0.000444		-0.000828		
0.662227		-18.285356		822.985369		168.703580		0.074136		0.000000		0.263038		-0.484470		21.808115		4.470528		34.341551		931.288826		210.125582		-0.142861		0.000000		0.248824		-0.331586		-8.992031		-2.028835		21.241534		2.063818		0.134917		0.375867		1.310686		1.913885		-0.098839		-0.009603		-0.000628		-17.635414		-0.967590		1.869310		-0.265264		1.310017		1.925221		0.009079		0.000498		-0.000962		
0.665081		-26.591436		817.953521		158.294311		0.075486		0.000000		0.263747		-0.677204		20.831824		4.031506		33.141246		879.139890		207.737638		-0.142096		0.000000		0.247714		-0.306104		-8.120165		-1.918743		21.338230		2.094498		0.198235		0.375890		1.310724		1.913873		-0.101414		-0.009954		-0.000942		-17.698707		-0.952745		1.932570		-0.265233		1.310006		1.925180		0.009894		0.000532		-0.001080		
0.667934		-34.119579		812.242052		151.167019		0.076703		0.000000		0.264466		-0.836112		19.904846		3.704521		35.117983		834.351372		208.434069		-0.141876		0.000000		0.246574		-0.300414		-7.137739		-1.783082		21.399764		2.110933		0.317007		0.375905		1.310755		1.913853		-0.103330		-0.010193		-0.001531		-17.736663		-0.903536		1.909093		-0.265198		1.309993		1.925132		0.010353		0.000528		-0.001114		
0.670788		-40.629220		805.410083		147.422895		0.077598		0.000000		0.264788		-0.959000		19.011490		3.479884		39.952245		797.135073		212.389546		-0.142241		0.000000		0.245339		-0.298848		-5.964063		-1.588939		21.416431		2.112809		0.454624		0.375912		1.310780		1.913828		-0.104411		-0.010301		-0.002217		-17.732856		-0.840614		1.816868		-0.265158		1.309980		1.925081		0.010031		0.000476		-0.001028		
0.673641		-45.930973		797.143866		146.618266		0.078054		0.000000		0.264480		-1.045587		18.146866		3.337733		46.441250		767.237631		218.847651		-0.143057		0.000000		0.244042		-0.286409		-4.732806		-1.349868		21.396194		2.103862		0.569283		0.375912		1.310802		1.913804		-0.104639		-0.010289		-0.002784		-17.685058		-0.783372		1.699094		-0.265119		1.309965		1.925028		0.008751		0.000388		-0.000841		
0.676495		-49.815063		787.432085		148.222981		0.078038		0.000000		0.263528		-1.096012		17.324800		3.261148		53.193230		744.260312		226.454879		-0.144097		0.000000		0.242794		-0.262035		-3.666346		-1.115548		21.356831		2.090013		0.626470		0.375908		1.310825		1.913790		-0.104086		-0.010186		-0.003053		-17.604649		-0.745336		1.601706		-0.265082		1.309952		1.924978		0.006677		0.000283		-0.000607		
0.679348		-52.043108		776.644276		151.810344		0.077598		0.000000		0.262113		-1.111674		16.589727		3.242763		59.297348		727.791951		233.824965		-0.145164		0.000000		0.241733		-0.237793		-2.918979		-0.937756		21.318255		2.077604		0.608088		0.375902		1.310854		1.913790		-0.102962		-0.010034		-0.002937		-17.513843		-0.732700		1.553715		-0.265051		1.309940		1.924931		0.004262		0.000178		-0.000379		
0.682202		-52.464649		765.473372		157.005921		0.076848		0.000000		0.260515		-1.096832		16.003076		3.282364		64.660762		717.286529		240.127094		-0.146199		0.000000		0.240943		-0.223354		-2.477879		-0.829498		21.296678		2.071335		0.518500		0.375897		1.310891		1.913804		-0.101680		-0.009890		-0.002476		-17.439975		-0.743498		1.554204		-0.265026		1.309930		1.924889		0.002046		0.000087		-0.000182		
0.685056		-51.063300		754.703864		163.465415		0.075910		0.000000		0.259008		-1.057504		15.629669		3.385314		69.758577		712.229762		245.276626		-0.147275		0.000000		0.240435		-0.215271		-2.197963		-0.756926		21.301436		2.071886		0.379992		0.375892		1.310936		1.913830		-0.100742		-0.009799		-0.001797		-17.407226		-0.769253		1.577973		-0.265010		1.309924		1.924849		0.000456		0.000020		-0.000041		
0.687909		-47.989997		744.991805		170.870773		0.074886		0.000000		0.257781		-0.998354		15.498384		3.554708		75.130734		712.101624		249.676148		-0.148507		0.000000		0.240160		-0.200375		-1.899302		-0.665922		21.334147		2.073972		0.226336		0.375891		1.310983		1.913858		-0.100508		-0.009770		-0.001067		-17.429309		-0.796673		1.591326		-0.264996		1.309921		1.924812		-0.000277		-0.000012		0.000025		
0.690763		-43.548780		736.650800		178.957100		0.073821		0.000000		0.256850		-0.920231		15.566438		3.781639		80.954144		716.316293		253.733406		-0.149925		0.000000		0.240062		-0.166962		-1.477595		-0.523384		21.389181		2.067232		0.091789		0.375894		1.311025		1.913880		-0.100958		-0.009758		-0.000433		-17.503644		-0.811266		1.570721		-0.264986		1.309922		1.924776		-0.000144		-0.000007		0.000013		
0.693616		-38.106002		729.601341		187.496877		0.072686		0.000000		0.256061		-0.821855		15.735998		4.043946		86.948466		724.258789		257.451025		-0.151447		0.000000		0.240111		-0.114674		-0.955367		-0.339603		21.456629		2.040853		0.000109		0.375899		1.311058		1.913886		-0.101668		-0.009670		-0.000001		-17.612603		-0.801695		1.515104		-0.264974		1.309925		1.924741		0.000732		0.000033		-0.000063		
0.696470		-32.042708		723.507813		196.200336		0.071420		0.000000		0.255175		-0.704727		15.912468		4.315139		92.587258		735.285881		260.390435		-0.152914		0.000000		0.240307		-0.055363		-0.439699		-0.155715		21.526164		1.988930		-0.040499		0.375907		1.311077		1.913871		-0.102006		-0.009425		0.000192		-17.729396		-0.762305		1.442063		-0.264960		1.309929		1.924705		0.002190		0.000094		-0.000179		
0.699323		-25.750358		717.981323		204.635365		0.069996		0.000000		0.254015		-0.575790		16.054804		4.575882		97.375394		748.713458		261.963036		-0.154178		0.000000		0.240648		-0.004658		-0.035874		-0.012565		21.590603		1.915239		-0.038253		0.375915		1.311082		1.913836		-0.101403		-0.008995		0.000180		-17.824741		-0.694481		1.374261		-0.264945		1.309934		1.924673		0.004076		0.000159		-0.000314		
0.702177		-19.602170		712.767759		212.308877		0.068471		0.000000		0.252584		-0.444683		16.169883		4.816468		101.034226		763.852863		261.850602		-0.155162		0.000000		0.241103		0.029407		0.222315		0.076199		21.646915		1.835131		-0.012427		0.375919		1.311075		1.913785		-0.099616		-0.008445		0.000058		-17.875329		-0.608150		1.324652		-0.264930		1.309937		1.924643		0.006231		0.000212		-0.000462		
0.705030		-13.885334		707.832429		218.820345		0.066976		0.000000		0.251057		-0.319258		16.274971		5.031272		103.457329		780.147952		260.159986		-0.155857		0.000000		0.241622		0.049451		0.372901		0.124351		21.693589		1.771727		0.018176		0.375918		1.311061		1.913725		-0.096830		-0.007908		-0.000081		-17.870192		-0.521119		1.291594		-0.264917		1.309940		1.924618		0.008469		0.000247		-0.000613		
0.707884		-8.752606		703.321167		223.983031		0.065667		0.000000		0.249677		-0.203753		16.373237		5.214309		104.573285		797.220464		257.292610		-0.156278		0.000000		0.242143		0.062799		0.478762		0.154508		21.729428		1.748759		0.043319		0.375910		1.311042		1.913667		-0.093629		-0.007535		-0.000187		-17.811832		-0.455280		1.264483		-0.264907		1.309942		1.924599		0.010505		0.000268		-0.000746		
0.710737		-4.214720		699.455378		227.847653		0.064644		0.000000		0.248619		-0.099211		16.465987		5.363805		104.270683		814.866105		253.650362		-0.156436		0.000000		0.242633		0.072908		0.569787		0.177356		21.754848		1.779174		0.063073		0.375897		1.311022		1.913620		-0.090815		-0.007427		-0.000263		-17.712424		-0.427462		1.235792		-0.264904		1.309942		1.924589		0.011915		0.000287		-0.000831		
0.713591		-0.222651		696.443737		230.573345		0.063912		0.000000		0.247917		-0.005291		16.565341		5.484332		102.396352		833.007606		249.371817		-0.156326		0.000000		0.243091		0.075503		0.614221		0.183877		21.772627		1.857542		0.084016		0.375878		1.311003		1.913591		-0.089145		-0.007605		-0.000344		-17.586909		-0.442620		1.208626		-0.264907		1.309941		1.924585		0.012225		0.000308		-0.000840		
